<mxfile host="app.diagrams.net" modified="2023-04-27T19:12:20.717Z" agent="Mozilla/5.0 (Windows NT 10.0; Win64; x64) AppleWebKit/537.36 (KHTML, like Gecko) Chrome/112.0.0.0 Safari/537.36" version="21.1.7" etag="wq9f2xXp-1uzxEebKC9z" type="github">
  <diagram name="Page-1" id="KLGq2YjVV49GgG1ZtbId">
    <mxGraphModel>
      <root>
        <mxCell id="0" />
        <mxCell id="1" parent="0" />
      </root>
    </mxGraphModel>
  </diagram>
</mxfile>
